<mxfile><diagram id="hWfA5Rfxt2DvoOpmETke" name="Page-1"><mxGraphModel dx="596" dy="535" grid="1" gridSize="10" guides="1" tooltips="1" connect="1" arrows="1" fold="1" page="1" pageScale="1" pageWidth="850" pageHeight="1100" math="0" shadow="0"><root><mxCell id="0"/><mxCell id="1" parent="0"/><mxCell id="2" value="" style="shape=hexagon;perimeter=hexagonPerimeter2;whiteSpace=wrap;html=1;fixedSize=1;" vertex="1" parent="1"><mxGeometry x="100" y="200" width="250" height="250" as="geometry"/></mxCell><mxCell id="3" value="API RESTful&lt;br&gt;" style="text;html=1;strokeColor=none;fillColor=none;align=center;verticalAlign=middle;whiteSpace=wrap;rounded=0;" vertex="1" parent="1"><mxGeometry x="251.25" y="130" width="95" height="30" as="geometry"/></mxCell><mxCell id="5" value="Persistance&lt;br&gt;Relational DB" style="text;html=1;strokeColor=none;fillColor=none;align=center;verticalAlign=middle;whiteSpace=wrap;rounded=0;" vertex="1" parent="1"><mxGeometry x="116.25" y="470" width="80" height="50" as="geometry"/></mxCell><mxCell id="6" value="Swagger&lt;br&gt;(Docs)" style="shape=note;whiteSpace=wrap;html=1;backgroundOutline=1;darkOpacity=0.05;size=19;" vertex="1" parent="1"><mxGeometry x="196.25" y="100" width="52.5" height="70" as="geometry"/></mxCell><mxCell id="7" value="SQL&lt;br&gt;Server" style="shape=cylinder3;whiteSpace=wrap;html=1;boundedLbl=1;backgroundOutline=1;size=15;" vertex="1" parent="1"><mxGeometry x="205" y="460" width="40" height="70" as="geometry"/></mxCell><mxCell id="9" value="" style="shape=hexagon;perimeter=hexagonPerimeter2;whiteSpace=wrap;html=1;fixedSize=1;" vertex="1" parent="1"><mxGeometry x="138.75" y="242.5" width="172.5" height="165" as="geometry"/></mxCell><mxCell id="10" value="DTO" style="text;html=1;strokeColor=none;fillColor=none;align=center;verticalAlign=middle;whiteSpace=wrap;rounded=0;" vertex="1" parent="1"><mxGeometry x="192.5" y="210" width="60" height="30" as="geometry"/></mxCell><mxCell id="12" value="Intefaces" style="text;html=1;strokeColor=none;fillColor=none;align=center;verticalAlign=middle;whiteSpace=wrap;rounded=0;" vertex="1" parent="1"><mxGeometry x="180" y="242.5" width="90" height="30" as="geometry"/></mxCell><mxCell id="13" value="" style="shape=hexagon;perimeter=hexagonPerimeter2;whiteSpace=wrap;html=1;fixedSize=1;" vertex="1" parent="1"><mxGeometry x="157.19" y="270" width="130.62" height="100" as="geometry"/></mxCell><mxCell id="14" value="Model" style="shape=hexagon;perimeter=hexagonPerimeter2;whiteSpace=wrap;html=1;fixedSize=1;" vertex="1" parent="1"><mxGeometry x="185.94" y="320" width="70.62" height="40" as="geometry"/></mxCell><mxCell id="15" value="Business&amp;nbsp;&lt;br&gt;Logic" style="text;html=1;strokeColor=none;fillColor=none;align=center;verticalAlign=middle;whiteSpace=wrap;rounded=0;" vertex="1" parent="1"><mxGeometry x="191.25" y="280" width="60" height="30" as="geometry"/></mxCell></root></mxGraphModel></diagram></mxfile>